HIERARCHY
ROOT Hips
{
    OFFSET   0.000000   0.000000   0.000000
    CHANNELS 6 Xposition Yposition Zposition Zrotation Xrotation Yrotation
    JOINT Chest
    {
        OFFSET   0.000000   8.007230   0.000000
        CHANNELS 3 Zrotation Xrotation Yrotation
        JOINT Chest2
        {
            OFFSET   0.000000  22.077100   0.000000
            CHANNELS 3 Zrotation Xrotation Yrotation
            JOINT Neck
            {
                OFFSET   0.000000  23.254700   0.000000
                CHANNELS 3 Zrotation Xrotation Yrotation
                JOINT Head
                {
                    OFFSET   0.000010  14.370000   1.956610
                    CHANNELS 3 Zrotation Xrotation Yrotation
                    End Site
                    {
                        OFFSET   0.000000  19.566000   0.000000
                    }
                }
            }
            JOINT LeftCollar
            {
                OFFSET   3.911900  19.017000  -0.467063
                CHANNELS 3 Zrotation Xrotation Yrotation
                JOINT LeftShoulder
                {
                    OFFSET  10.383700   0.000000   0.000000
                    CHANNELS 3 Zrotation Xrotation Yrotation
                    JOINT LeftElbow
                    {
                        OFFSET  26.662100   0.001671   0.000522
                        CHANNELS 3 Zrotation Xrotation Yrotation
                        JOINT LeftWrist
                        {
                            OFFSET  28.869000   0.000037  -0.000114
                            CHANNELS 3 Zrotation Xrotation Yrotation
                            JOINT LeftFinger0
                            {
                                OFFSET   2.044650  -2.323450   3.252850
                                CHANNELS 3 Zrotation Xrotation Yrotation
                                JOINT LeftFinger01
                                {
                                    OFFSET   3.088140   0.000000   0.000000
                                    CHANNELS 3 Zrotation Xrotation Yrotation
                                    JOINT LeftFinger02
                                    {
                                        OFFSET   2.639460   0.000000   0.000000
                                        CHANNELS 3 Zrotation Xrotation Yrotation
                                        End Site
                                        {
                                            OFFSET   2.582190   0.000000   0.000000
                                        }
                                    }
                                }
                            }
                            JOINT LeftFinger1
                            {
                                OFFSET   8.364480   0.000000   3.252850
                                CHANNELS 3 Zrotation Xrotation Yrotation
                                JOINT LeftFinger11
                                {
                                    OFFSET   4.646930   0.000000   0.000000
                                    CHANNELS 3 Zrotation Xrotation Yrotation
                                    JOINT LeftFinger12
                                    {
                                        OFFSET   2.323470   0.000000   0.000000
                                        CHANNELS 3 Zrotation Xrotation Yrotation
                                        End Site
                                        {
                                            OFFSET   2.273050   0.000000   0.000000
                                        }
                                    }
                                }
                            }
                            JOINT LeftFinger2
                            {
                                OFFSET   8.364490   0.000016   1.078090
                                CHANNELS 3 Zrotation Xrotation Yrotation
                                JOINT LeftFinger21
                                {
                                    OFFSET   5.111620   0.000000   0.000000
                                    CHANNELS 3 Zrotation Xrotation Yrotation
                                    JOINT LeftFinger22
                                    {
                                        OFFSET   2.788150   0.000013   0.000000
                                        CHANNELS 3 Zrotation Xrotation Yrotation
                                        End Site
                                        {
                                            OFFSET   2.727660   0.000000   0.000000
                                        }
                                    }
                                }
                            }
                            JOINT LeftFinger3
                            {
                                OFFSET   7.899780   0.000016  -1.078090
                                CHANNELS 3 Zrotation Xrotation Yrotation
                                JOINT LeftFinger31
                                {
                                    OFFSET   4.646930   0.000000   0.000000
                                    CHANNELS 3 Zrotation Xrotation Yrotation
                                    JOINT LeftFinger32
                                    {
                                        OFFSET   2.323470   0.000000   0.000000
                                        CHANNELS 3 Zrotation Xrotation Yrotation
                                        End Site
                                        {
                                            OFFSET   2.273050   0.000000   0.000000
                                        }
                                    }
                                }
                            }
                            JOINT LeftFinger4
                            {
                                OFFSET   7.435080   0.000000  -3.252850
                                CHANNELS 3 Zrotation Xrotation Yrotation
                                JOINT LeftFinger41
                                {
                                    OFFSET   3.717550   0.000000   0.000000
                                    CHANNELS 3 Zrotation Xrotation Yrotation
                                    JOINT LeftFinger42
                                    {
                                        OFFSET   1.858760   0.000000   0.000000
                                        CHANNELS 3 Zrotation Xrotation Yrotation
                                        End Site
                                        {
                                            OFFSET   1.818440   0.000000   0.000000
                                        }
                                    }
                                }
                            }
                        }
                    }
                }
            }
            JOINT RightCollar
            {
                OFFSET  -3.911900  19.017000  -0.467064
                CHANNELS 3 Zrotation Xrotation Yrotation
                JOINT RightShoulder
                {
                    OFFSET -10.383700   0.000000   0.000000
                    CHANNELS 3 Zrotation Xrotation Yrotation
                    JOINT RightElbow
                    {
                        OFFSET -26.662100   0.001633   0.000260
                        CHANNELS 3 Zrotation Xrotation Yrotation
                        JOINT RightWrist
                        {
                            OFFSET -28.869000  -0.000045  -0.000080
                            CHANNELS 3 Zrotation Xrotation Yrotation
                            JOINT RightFinger0
                            {
                                OFFSET  -2.044660  -2.323490   3.252850
                                CHANNELS 3 Zrotation Xrotation Yrotation
                                JOINT RightFinger01
                                {
                                    OFFSET  -3.088140   0.000000   0.000000
                                    CHANNELS 3 Zrotation Xrotation Yrotation
                                    JOINT RightFinger02
                                    {
                                        OFFSET  -2.639450   0.000000   0.000000
                                        CHANNELS 3 Zrotation Xrotation Yrotation
                                        End Site
                                        {
                                            OFFSET  -2.582190   0.000000   0.000000
                                        }
                                    }
                                }
                            }
                            JOINT RightFinger1
                            {
                                OFFSET  -8.364480   0.000000   3.252850
                                CHANNELS 3 Zrotation Xrotation Yrotation
                                JOINT RightFinger11
                                {
                                    OFFSET  -4.646920   0.000000   0.000000
                                    CHANNELS 3 Zrotation Xrotation Yrotation
                                    JOINT RightFinger12
                                    {
                                        OFFSET  -2.323470   0.000000   0.000000
                                        CHANNELS 3 Zrotation Xrotation Yrotation
                                        End Site
                                        {
                                            OFFSET  -2.273050   0.000000   0.000000
                                        }
                                    }
                                }
                            }
                            JOINT RightFinger2
                            {
                                OFFSET  -8.364480   0.000000   1.078090
                                CHANNELS 3 Zrotation Xrotation Yrotation
                                JOINT RightFinger21
                                {
                                    OFFSET  -5.111610   0.000000   0.000000
                                    CHANNELS 3 Zrotation Xrotation Yrotation
                                    JOINT RightFinger22
                                    {
                                        OFFSET  -2.788160   0.000000   0.000000
                                        CHANNELS 3 Zrotation Xrotation Yrotation
                                        End Site
                                        {
                                            OFFSET  -2.727660   0.000000   0.000000
                                        }
                                    }
                                }
                            }
                            JOINT RightFinger3
                            {
                                OFFSET  -7.899780   0.000000  -1.078090
                                CHANNELS 3 Zrotation Xrotation Yrotation
                                JOINT RightFinger31
                                {
                                    OFFSET  -4.646930   0.000000   0.000000
                                    CHANNELS 3 Zrotation Xrotation Yrotation
                                    JOINT RightFinger32
                                    {
                                        OFFSET  -2.323470   0.000000   0.000000
                                        CHANNELS 3 Zrotation Xrotation Yrotation
                                        End Site
                                        {
                                            OFFSET  -2.273050   0.000000   0.000000
                                        }
                                    }
                                }
                            }
                            JOINT RightFinger4
                            {
                                OFFSET  -7.435090   0.000000  -3.252850
                                CHANNELS 3 Zrotation Xrotation Yrotation
                                JOINT RightFinger41
                                {
                                    OFFSET  -3.717550   0.000000   0.000000
                                    CHANNELS 3 Zrotation Xrotation Yrotation
                                    JOINT RightFinger42
                                    {
                                        OFFSET  -1.858760   0.000000   0.000000
                                        CHANNELS 3 Zrotation Xrotation Yrotation
                                        End Site
                                        {
                                            OFFSET  -1.818440   0.000000   0.000000
                                        }
                                    }
                                }
                            }
                        }
                    }
                }
            }
        }
    }
    JOINT LeftHip
    {
        OFFSET   9.782990   0.000000   0.000000
        CHANNELS 3 Zrotation Xrotation Yrotation
        JOINT LeftKnee
        {
            OFFSET  -0.000063 -41.789100   0.001657
            CHANNELS 3 Zrotation Xrotation Yrotation
            JOINT LeftAnkle
            {
                OFFSET   0.000078 -41.133200  -0.000113
                CHANNELS 3 Zrotation Xrotation Yrotation
                JOINT LeftToe
                {
                    OFFSET   0.000000  -6.358970  14.674500
                    CHANNELS 3 Zrotation Xrotation Yrotation
                    End Site
                    {
                        OFFSET   0.000000   0.000000   3.913200
                    }
                }
            }
        }
    }
    JOINT RightHip
    {
        OFFSET  -9.782990   0.000000   0.000000
        CHANNELS 3 Zrotation Xrotation Yrotation
        JOINT RightKnee
        {
            OFFSET   0.000053 -41.789200   0.000277
            CHANNELS 3 Zrotation Xrotation Yrotation
            JOINT RightAnkle
            {
                OFFSET   0.000030 -41.133200  -0.000150
                CHANNELS 3 Zrotation Xrotation Yrotation
                JOINT RightToe
                {
                    OFFSET   0.000000  -6.358960  14.674500
                    CHANNELS 3 Zrotation Xrotation Yrotation
                    End Site
                    {
                        OFFSET   0.000000   0.000000   3.913200
                    }
                }
            }
        }
    }
}
MOTION
Frames: 4
Frame Time:   0.016667
  0.613233  89.507600  -0.639950  -2.129370 -14.891100   5.200300   0.552247  10.990600   4.400630   0.231242  21.990600   8.945970   0.416594  -4.082810   0.023854   0.694460  -8.277790 -18.057600  -7.007010  -7.480740  -3.308900 -70.272500  22.709400  -7.222020  -0.641338  -5.176320 -19.717900  12.196300  -2.860110   2.898820  38.972100  31.546800 -54.420600 -32.357200   0.000000   0.000081 -11.178600   0.002918  -0.000000 -31.721500   4.448250  -7.151690 -26.181200   0.002494   0.001570 -18.326800  -0.002854   0.003962 -28.772800  -1.196430   2.177450 -43.205000  -0.005049   0.005865 -28.774600  -0.005254   0.001663 -28.731600  -1.194940   2.178240 -40.427100  -0.005774   0.000689 -26.924500  -0.004580   0.001142 -35.434700  -1.441020   2.023970 -53.189700   0.000575   0.000069 -35.424300  -0.005692   0.000000  12.587800  -6.149370  13.372600  53.910500   0.352787  40.285800 -27.771100 -39.715200  85.726800  40.342800 -61.372400  49.924500 -33.279700  56.871300  74.697500  67.366400   0.000559  -0.002278  38.206000  -0.005843  -0.001817   5.757370   3.056400  27.872100   5.331120  -0.001922  -0.001712   3.731780  -0.001343  -0.001093  83.655000  -0.002525   0.007433  83.655100   0.004716   0.002926  62.741200   0.002207   0.005300  85.629500  -4.979560  -0.380378  85.646100   0.002516   0.006447  64.234600   0.005557  -0.001772  88.981100  -9.997140  -0.177445 110.000000  -0.000526  -0.004493  79.997400  -0.005925   0.009851   3.022380  16.986100   4.447430   0.826428   0.037862  -1.133180  -2.578280  -2.549990  -1.253220  -0.000000   0.000000   0.000000   4.200070  15.596000  -2.102770  -1.828200   4.675270  -8.459220   0.461517  -5.944860  -1.754140  -0.000000   0.000000   0.000000
  0.599585  89.505600  -0.605734  -2.131800 -14.875800   5.175740   0.564989  10.967400   4.392400   0.261235  21.945400   8.925360   0.410763  -4.075450   0.023785   0.683615  -8.262770 -18.035800  -7.028870  -7.446890  -3.352780 -70.248000  22.679800  -7.293730  -0.565311  -5.119320 -19.929600  12.205800  -2.962060   2.850740  39.081700  31.638000 -54.466000 -32.296800   0.000000   0.000072 -11.148400   0.002900   0.000000 -31.773700   4.453990  -7.150010 -26.221500   0.002692   0.001570 -18.355000  -0.002894   0.004244 -28.804200  -1.196220   2.172150 -43.261400  -0.005049   0.005864 -28.812100  -0.005255   0.001662 -28.733100  -1.192680   2.174090 -40.479100  -0.005774   0.000689 -26.959200  -0.004581   0.001142 -35.514300  -1.441270   2.016900 -53.310400   0.000577   0.000069 -35.504700  -0.005693   0.000000  12.595700  -6.150000  13.366700  53.888800   0.407554  40.300700 -27.842200 -39.725400  85.677700  40.142300 -61.154700  49.797100 -33.248300  56.930900  74.625900  67.440800   0.000723  -0.002205  38.255600  -0.005937  -0.001805   5.909200   3.129540  27.812600   5.468860  -0.001873  -0.001608   3.828200  -0.001325  -0.001016  83.825200  -0.002559   0.007695  83.825200   0.004897   0.002896  62.868700   0.002201   0.005405  85.744700  -4.980040  -0.370459  85.760800   0.002586   0.006527  64.320600   0.005601  -0.001808  88.981000  -9.997180  -0.177470 110.000000  -0.000505  -0.004493  79.997300  -0.005907   0.009814   3.026160  16.970000   4.447250   0.827449   0.081049  -1.130380  -2.583320  -2.592970  -1.230420  -0.000000   0.000000  -0.000000   4.225170  15.612300  -2.081950  -1.847760   4.661960  -8.463220   0.457306  -5.963390  -1.753460  -0.000000   0.000000  -0.000000
  0.582595  89.503600  -0.572213  -2.138680 -14.856900   5.139210   0.576583  10.943100   4.389360   0.287735  21.897700   8.915990   0.408294  -4.067420   0.023712   0.680631  -8.246510 -18.026600  -7.044420  -7.426840  -3.393590 -70.223600  22.665800  -7.361470  -0.493327  -5.066200 -20.119900  12.211700  -3.055280   2.830360  39.110000  31.711100 -54.439000 -32.275300   0.000000   0.000067 -11.137600   0.002879   0.000000 -31.810300   4.454930  -7.137890 -26.253900   0.002889   0.001569 -18.377700  -0.002930   0.004527 -28.835800  -1.196190   2.171390 -43.288700  -0.005049   0.005864 -28.830300  -0.005256   0.001662 -28.736200  -1.192350   2.173500 -40.511600  -0.005773   0.000689 -26.980800  -0.004581   0.001143 -35.576700  -1.442950   2.015890 -53.402800   0.000578   0.000070 -35.566300  -0.005695  -0.000000  12.607900  -6.153660  13.357200  53.860200   0.458290  40.309500 -27.950300 -39.722100  85.591200  39.879400 -60.960600  49.624700 -33.221600  56.927700  74.550800  67.545700   0.000882  -0.002158  38.325400  -0.006028  -0.001781   6.081670   3.212550  27.745800   5.625230  -0.001820  -0.001507   3.937650  -0.001307  -0.000939  83.903500  -0.002595   0.007944  83.903500   0.005067   0.002872  62.927500   0.002196   0.005503  85.793400  -4.980570  -0.366290  85.809400   0.002653   0.006605  64.357100   0.005641  -0.001844  88.980900  -9.997230  -0.177496 110.000000  -0.000481  -0.004493  79.997300  -0.005889   0.009773   3.034180  16.953900   4.448280   0.828585   0.124237  -1.121780  -2.589340  -2.628170  -1.204940  -0.000000   0.000000  -0.000000   4.253930  15.626300  -2.054050  -1.868890   4.641220  -8.468640   0.451600  -5.977380  -1.751400  -0.000000   0.000000   0.000000
  0.560997  89.501600  -0.541548  -2.150580 -14.834200   5.090240   0.586349  10.918000   4.392110   0.309343  21.848400   8.918940   0.411825  -4.059700   0.023649   0.687888  -8.231260 -18.041700  -7.054720  -7.423370  -3.432470 -70.206300  22.678200  -7.418310  -0.417681  -4.994440 -20.291300  12.221800  -3.165200   2.870110  39.064600  31.702100 -54.241800 -32.345500   0.000000   0.000078 -11.172700   0.002846  -0.000000 -31.840700   4.365380  -6.983810 -26.267900   0.003091   0.001568 -18.387500  -0.002966   0.004812 -28.837900  -1.298910   2.357020 -43.297300  -0.005050   0.005864 -28.836000  -0.005254   0.001662 -28.732700  -1.294440   2.359520 -40.527900  -0.005773   0.000689 -26.991600  -0.004580   0.001143 -35.612500  -1.568760   2.187270 -53.463400   0.000577   0.000069 -35.606600  -0.005692   0.000000  12.638400  -6.191860  13.350800  53.818800   0.485779  40.298900 -27.986900 -39.666200  85.516700  39.922400 -60.949800  49.736000 -33.141000  56.878400  74.452300  67.593200   0.001031  -0.002373  38.357000  -0.006121  -0.001750   6.243980   3.290480  27.682600   5.772210  -0.001772  -0.001406   4.040530  -0.001278  -0.000865  83.925600  -0.002624   0.008172  83.925700   0.005228   0.002864  62.944300   0.002186   0.005587  85.840800  -4.981120  -0.362207  85.856500   0.002725   0.006686  64.392400   0.005681  -0.001895  88.980900  -9.997300  -0.177522 110.000000  -0.000452  -0.004481  79.997300  -0.005875   0.009738   3.042480  16.976100   4.456260   0.828579   0.080868  -1.106420  -2.597740  -2.632050  -1.179400   0.000000   0.000000  -0.000000   4.281120  15.634400  -2.012630  -1.884420   4.619760  -8.485350   0.443621  -5.987350  -1.737580   0.000000   0.000000   0.000000
